<?xml version="1.0" encoding="UTF-8"?>
<svg xmlns="http://www.w3.org/2000/svg" viewBox="0 0 1000 1000" width="1000" height="1000">
<rect width="1000" height="1000" fill="#FFFFFF"/>
<g transform="translate(801,816) scale(0.26)"><path fill="#1A1A1A" d="M458.73,338.34c-1.92,7.08-8.7,10.92-15.64,9-7.08-1.92-10.92-8.56-9-15.49,1.92-7.08,8.56-11.07,15.49-9.15,7.08,1.92,11.07,8.7,9.15,15.64Z"/><path fill="#1A1A1A" d="M388.75,256.62c-9.68-2.3-18.46-.21-26.01,7.3l9.18-39.58-11.09-2.56-4.53-1.03-23.05,100.65,15.49,3.57,7.77-33.95c3.83-16.53,11.98-23.62,24.34-20.82,9.53,2.16,13.49,9.69,10.95,21.01l-9.56,41.39,15.93,3.55,9.94-43.33c4.46-19.36-2.51-32.39-19.33-36.21Z"/><path fill="#1A1A1A" d="M285.52,266.22c20.46,2.49,29.43,13.3,27.05,32.4l-5.7,46.39-15.77-1.96,1.11-10.14c-5.88,6.94-14.5,10.23-24.66,8.98-14.85-1.79-23.65-12.47-21.97-25.97,1.65-12.6,11.61-20.26,26.27-19.78l20.61.38c3.15.15,4.36-.76,4.66-2.89l.23-1.52c.62-6.2-4.15-10.44-13.41-11.67-9.99-1.13-17.26,2.28-20.01,9.22l-11.64-9.69c5.18-10.86,16.71-15.76,33.23-13.76ZM273.84,309.28c-6.86-.08-11.07,2.9-11.81,8.21-.66,5.9,3.36,10.11,10.93,10.98,11.08,1.42,20.56-5.27,21.73-14.98l.45-4.23-21.3.02Z"/><path fill="#1A1A1A" d="M131.33,274.68l-12.28-9.35c26.11-34.28,66.79-62.74,114.54-80.12,47.76-17.38,97.21-21.74,139.25-12.25l-3.39,15.05c-39.19-8.84-85.56-4.69-130.58,11.7-45.01,16.38-83.21,43.01-107.54,74.97Z"/><polygon fill="#1A1A1A" points="206.16 289.84 197.84 338.78 165.77 300.96 152.24 311.03 194.63 358.87 187.86 398.87 203.42 398.87 221.81 289.84 206.16 289.84"/></g>
<text x="500" y="145" text-anchor="middle" font-family="Helvetica, Arial, 'Hiragino Sans', 'Noto Sans JP', sans-serif" font-weight="600" font-size="42" fill="#1A1A1A">24/7 AI chat support</text>
<g fill="#000000"><rect x="203" y="203" width="18" height="18"/><rect x="221" y="203" width="18" height="18"/><rect x="239" y="203" width="18" height="18"/><rect x="257" y="203" width="18" height="18"/><rect x="275" y="203" width="18" height="18"/><rect x="293" y="203" width="18" height="18"/><rect x="311" y="203" width="18" height="18"/><rect x="401" y="203" width="18" height="18"/><rect x="455" y="203" width="18" height="18"/><rect x="473" y="203" width="18" height="18"/><rect x="491" y="203" width="18" height="18"/><rect x="527" y="203" width="18" height="18"/><rect x="545" y="203" width="18" height="18"/><rect x="581" y="203" width="18" height="18"/><rect x="599" y="203" width="18" height="18"/><rect x="635" y="203" width="18" height="18"/><rect x="671" y="203" width="18" height="18"/><rect x="689" y="203" width="18" height="18"/><rect x="707" y="203" width="18" height="18"/><rect x="725" y="203" width="18" height="18"/><rect x="743" y="203" width="18" height="18"/><rect x="761" y="203" width="18" height="18"/><rect x="779" y="203" width="18" height="18"/><rect x="203" y="221" width="18" height="18"/><rect x="311" y="221" width="18" height="18"/><rect x="347" y="221" width="18" height="18"/><rect x="365" y="221" width="18" height="18"/><rect x="401" y="221" width="18" height="18"/><rect x="437" y="221" width="18" height="18"/><rect x="473" y="221" width="18" height="18"/><rect x="527" y="221" width="18" height="18"/><rect x="671" y="221" width="18" height="18"/><rect x="779" y="221" width="18" height="18"/><rect x="203" y="239" width="18" height="18"/><rect x="239" y="239" width="18" height="18"/><rect x="257" y="239" width="18" height="18"/><rect x="275" y="239" width="18" height="18"/><rect x="311" y="239" width="18" height="18"/><rect x="347" y="239" width="18" height="18"/><rect x="365" y="239" width="18" height="18"/><rect x="383" y="239" width="18" height="18"/><rect x="401" y="239" width="18" height="18"/><rect x="473" y="239" width="18" height="18"/><rect x="509" y="239" width="18" height="18"/><rect x="527" y="239" width="18" height="18"/><rect x="545" y="239" width="18" height="18"/><rect x="563" y="239" width="18" height="18"/><rect x="581" y="239" width="18" height="18"/><rect x="635" y="239" width="18" height="18"/><rect x="671" y="239" width="18" height="18"/><rect x="707" y="239" width="18" height="18"/><rect x="725" y="239" width="18" height="18"/><rect x="743" y="239" width="18" height="18"/><rect x="779" y="239" width="18" height="18"/><rect x="203" y="257" width="18" height="18"/><rect x="239" y="257" width="18" height="18"/><rect x="257" y="257" width="18" height="18"/><rect x="275" y="257" width="18" height="18"/><rect x="311" y="257" width="18" height="18"/><rect x="347" y="257" width="18" height="18"/><rect x="365" y="257" width="18" height="18"/><rect x="455" y="257" width="18" height="18"/><rect x="473" y="257" width="18" height="18"/><rect x="527" y="257" width="18" height="18"/><rect x="563" y="257" width="18" height="18"/><rect x="581" y="257" width="18" height="18"/><rect x="599" y="257" width="18" height="18"/><rect x="617" y="257" width="18" height="18"/><rect x="671" y="257" width="18" height="18"/><rect x="707" y="257" width="18" height="18"/><rect x="725" y="257" width="18" height="18"/><rect x="743" y="257" width="18" height="18"/><rect x="779" y="257" width="18" height="18"/><rect x="203" y="275" width="18" height="18"/><rect x="239" y="275" width="18" height="18"/><rect x="257" y="275" width="18" height="18"/><rect x="275" y="275" width="18" height="18"/><rect x="311" y="275" width="18" height="18"/><rect x="347" y="275" width="18" height="18"/><rect x="365" y="275" width="18" height="18"/><rect x="455" y="275" width="18" height="18"/><rect x="473" y="275" width="18" height="18"/><rect x="491" y="275" width="18" height="18"/><rect x="509" y="275" width="18" height="18"/><rect x="581" y="275" width="18" height="18"/><rect x="599" y="275" width="18" height="18"/><rect x="617" y="275" width="18" height="18"/><rect x="671" y="275" width="18" height="18"/><rect x="707" y="275" width="18" height="18"/><rect x="725" y="275" width="18" height="18"/><rect x="743" y="275" width="18" height="18"/><rect x="779" y="275" width="18" height="18"/><rect x="203" y="293" width="18" height="18"/><rect x="311" y="293" width="18" height="18"/><rect x="347" y="293" width="18" height="18"/><rect x="383" y="293" width="18" height="18"/><rect x="437" y="293" width="18" height="18"/><rect x="473" y="293" width="18" height="18"/><rect x="491" y="293" width="18" height="18"/><rect x="509" y="293" width="18" height="18"/><rect x="527" y="293" width="18" height="18"/><rect x="563" y="293" width="18" height="18"/><rect x="599" y="293" width="18" height="18"/><rect x="617" y="293" width="18" height="18"/><rect x="671" y="293" width="18" height="18"/><rect x="779" y="293" width="18" height="18"/><rect x="203" y="311" width="18" height="18"/><rect x="221" y="311" width="18" height="18"/><rect x="239" y="311" width="18" height="18"/><rect x="257" y="311" width="18" height="18"/><rect x="275" y="311" width="18" height="18"/><rect x="293" y="311" width="18" height="18"/><rect x="311" y="311" width="18" height="18"/><rect x="347" y="311" width="18" height="18"/><rect x="383" y="311" width="18" height="18"/><rect x="419" y="311" width="18" height="18"/><rect x="455" y="311" width="18" height="18"/><rect x="491" y="311" width="18" height="18"/><rect x="527" y="311" width="18" height="18"/><rect x="563" y="311" width="18" height="18"/><rect x="599" y="311" width="18" height="18"/><rect x="635" y="311" width="18" height="18"/><rect x="671" y="311" width="18" height="18"/><rect x="689" y="311" width="18" height="18"/><rect x="707" y="311" width="18" height="18"/><rect x="725" y="311" width="18" height="18"/><rect x="743" y="311" width="18" height="18"/><rect x="761" y="311" width="18" height="18"/><rect x="779" y="311" width="18" height="18"/><rect x="383" y="329" width="18" height="18"/><rect x="401" y="329" width="18" height="18"/><rect x="437" y="329" width="18" height="18"/><rect x="455" y="329" width="18" height="18"/><rect x="473" y="329" width="18" height="18"/><rect x="491" y="329" width="18" height="18"/><rect x="617" y="329" width="18" height="18"/><rect x="635" y="329" width="18" height="18"/><rect x="239" y="347" width="18" height="18"/><rect x="293" y="347" width="18" height="18"/><rect x="311" y="347" width="18" height="18"/><rect x="329" y="347" width="18" height="18"/><rect x="347" y="347" width="18" height="18"/><rect x="383" y="347" width="18" height="18"/><rect x="437" y="347" width="18" height="18"/><rect x="455" y="347" width="18" height="18"/><rect x="509" y="347" width="18" height="18"/><rect x="563" y="347" width="18" height="18"/><rect x="653" y="347" width="18" height="18"/><rect x="689" y="347" width="18" height="18"/><rect x="707" y="347" width="18" height="18"/><rect x="725" y="347" width="18" height="18"/><rect x="743" y="347" width="18" height="18"/><rect x="761" y="347" width="18" height="18"/><rect x="203" y="365" width="18" height="18"/><rect x="257" y="365" width="18" height="18"/><rect x="275" y="365" width="18" height="18"/><rect x="293" y="365" width="18" height="18"/><rect x="365" y="365" width="18" height="18"/><rect x="383" y="365" width="18" height="18"/><rect x="401" y="365" width="18" height="18"/><rect x="455" y="365" width="18" height="18"/><rect x="473" y="365" width="18" height="18"/><rect x="491" y="365" width="18" height="18"/><rect x="509" y="365" width="18" height="18"/><rect x="617" y="365" width="18" height="18"/><rect x="635" y="365" width="18" height="18"/><rect x="653" y="365" width="18" height="18"/><rect x="671" y="365" width="18" height="18"/><rect x="689" y="365" width="18" height="18"/><rect x="743" y="365" width="18" height="18"/><rect x="779" y="365" width="18" height="18"/><rect x="221" y="383" width="18" height="18"/><rect x="293" y="383" width="18" height="18"/><rect x="311" y="383" width="18" height="18"/><rect x="329" y="383" width="18" height="18"/><rect x="347" y="383" width="18" height="18"/><rect x="383" y="383" width="18" height="18"/><rect x="401" y="383" width="18" height="18"/><rect x="419" y="383" width="18" height="18"/><rect x="437" y="383" width="18" height="18"/><rect x="473" y="383" width="18" height="18"/><rect x="509" y="383" width="18" height="18"/><rect x="527" y="383" width="18" height="18"/><rect x="545" y="383" width="18" height="18"/><rect x="563" y="383" width="18" height="18"/><rect x="581" y="383" width="18" height="18"/><rect x="599" y="383" width="18" height="18"/><rect x="617" y="383" width="18" height="18"/><rect x="671" y="383" width="18" height="18"/><rect x="689" y="383" width="18" height="18"/><rect x="707" y="383" width="18" height="18"/><rect x="725" y="383" width="18" height="18"/><rect x="743" y="383" width="18" height="18"/><rect x="779" y="383" width="18" height="18"/><rect x="239" y="401" width="18" height="18"/><rect x="257" y="401" width="18" height="18"/><rect x="293" y="401" width="18" height="18"/><rect x="329" y="401" width="18" height="18"/><rect x="347" y="401" width="18" height="18"/><rect x="383" y="401" width="18" height="18"/><rect x="401" y="401" width="18" height="18"/><rect x="419" y="401" width="18" height="18"/><rect x="437" y="401" width="18" height="18"/><rect x="491" y="401" width="18" height="18"/><rect x="509" y="401" width="18" height="18"/><rect x="563" y="401" width="18" height="18"/><rect x="599" y="401" width="18" height="18"/><rect x="617" y="401" width="18" height="18"/><rect x="635" y="401" width="18" height="18"/><rect x="689" y="401" width="18" height="18"/><rect x="725" y="401" width="18" height="18"/><rect x="761" y="401" width="18" height="18"/><rect x="779" y="401" width="18" height="18"/><rect x="203" y="419" width="18" height="18"/><rect x="221" y="419" width="18" height="18"/><rect x="239" y="419" width="18" height="18"/><rect x="257" y="419" width="18" height="18"/><rect x="311" y="419" width="18" height="18"/><rect x="329" y="419" width="18" height="18"/><rect x="347" y="419" width="18" height="18"/><rect x="401" y="419" width="18" height="18"/><rect x="419" y="419" width="18" height="18"/><rect x="437" y="419" width="18" height="18"/><rect x="455" y="419" width="18" height="18"/><rect x="473" y="419" width="18" height="18"/><rect x="491" y="419" width="18" height="18"/><rect x="563" y="419" width="18" height="18"/><rect x="581" y="419" width="18" height="18"/><rect x="599" y="419" width="18" height="18"/><rect x="635" y="419" width="18" height="18"/><rect x="653" y="419" width="18" height="18"/><rect x="671" y="419" width="18" height="18"/><rect x="689" y="419" width="18" height="18"/><rect x="725" y="419" width="18" height="18"/><rect x="761" y="419" width="18" height="18"/><rect x="779" y="419" width="18" height="18"/><rect x="239" y="437" width="18" height="18"/><rect x="329" y="437" width="18" height="18"/><rect x="383" y="437" width="18" height="18"/><rect x="401" y="437" width="18" height="18"/><rect x="437" y="437" width="18" height="18"/><rect x="491" y="437" width="18" height="18"/><rect x="527" y="437" width="18" height="18"/><rect x="545" y="437" width="18" height="18"/><rect x="581" y="437" width="18" height="18"/><rect x="599" y="437" width="18" height="18"/><rect x="617" y="437" width="18" height="18"/><rect x="635" y="437" width="18" height="18"/><rect x="671" y="437" width="18" height="18"/><rect x="689" y="437" width="18" height="18"/><rect x="779" y="437" width="18" height="18"/><rect x="203" y="455" width="18" height="18"/><rect x="221" y="455" width="18" height="18"/><rect x="239" y="455" width="18" height="18"/><rect x="293" y="455" width="18" height="18"/><rect x="311" y="455" width="18" height="18"/><rect x="329" y="455" width="18" height="18"/><rect x="383" y="455" width="18" height="18"/><rect x="401" y="455" width="18" height="18"/><rect x="419" y="455" width="18" height="18"/><rect x="491" y="455" width="18" height="18"/><rect x="509" y="455" width="18" height="18"/><rect x="527" y="455" width="18" height="18"/><rect x="545" y="455" width="18" height="18"/><rect x="617" y="455" width="18" height="18"/><rect x="671" y="455" width="18" height="18"/><rect x="707" y="455" width="18" height="18"/><rect x="743" y="455" width="18" height="18"/><rect x="779" y="455" width="18" height="18"/><rect x="203" y="473" width="18" height="18"/><rect x="257" y="473" width="18" height="18"/><rect x="275" y="473" width="18" height="18"/><rect x="347" y="473" width="18" height="18"/><rect x="383" y="473" width="18" height="18"/><rect x="419" y="473" width="18" height="18"/><rect x="437" y="473" width="18" height="18"/><rect x="455" y="473" width="18" height="18"/><rect x="473" y="473" width="18" height="18"/><rect x="509" y="473" width="18" height="18"/><rect x="527" y="473" width="18" height="18"/><rect x="545" y="473" width="18" height="18"/><rect x="563" y="473" width="18" height="18"/><rect x="599" y="473" width="18" height="18"/><rect x="653" y="473" width="18" height="18"/><rect x="725" y="473" width="18" height="18"/><rect x="761" y="473" width="18" height="18"/><rect x="779" y="473" width="18" height="18"/><rect x="221" y="491" width="18" height="18"/><rect x="257" y="491" width="18" height="18"/><rect x="275" y="491" width="18" height="18"/><rect x="293" y="491" width="18" height="18"/><rect x="311" y="491" width="18" height="18"/><rect x="347" y="491" width="18" height="18"/><rect x="383" y="491" width="18" height="18"/><rect x="419" y="491" width="18" height="18"/><rect x="437" y="491" width="18" height="18"/><rect x="455" y="491" width="18" height="18"/><rect x="473" y="491" width="18" height="18"/><rect x="491" y="491" width="18" height="18"/><rect x="509" y="491" width="18" height="18"/><rect x="563" y="491" width="18" height="18"/><rect x="599" y="491" width="18" height="18"/><rect x="671" y="491" width="18" height="18"/><rect x="689" y="491" width="18" height="18"/><rect x="221" y="509" width="18" height="18"/><rect x="257" y="509" width="18" height="18"/><rect x="293" y="509" width="18" height="18"/><rect x="329" y="509" width="18" height="18"/><rect x="347" y="509" width="18" height="18"/><rect x="365" y="509" width="18" height="18"/><rect x="455" y="509" width="18" height="18"/><rect x="473" y="509" width="18" height="18"/><rect x="491" y="509" width="18" height="18"/><rect x="509" y="509" width="18" height="18"/><rect x="527" y="509" width="18" height="18"/><rect x="545" y="509" width="18" height="18"/><rect x="563" y="509" width="18" height="18"/><rect x="581" y="509" width="18" height="18"/><rect x="617" y="509" width="18" height="18"/><rect x="653" y="509" width="18" height="18"/><rect x="671" y="509" width="18" height="18"/><rect x="689" y="509" width="18" height="18"/><rect x="743" y="509" width="18" height="18"/><rect x="779" y="509" width="18" height="18"/><rect x="203" y="527" width="18" height="18"/><rect x="221" y="527" width="18" height="18"/><rect x="239" y="527" width="18" height="18"/><rect x="311" y="527" width="18" height="18"/><rect x="329" y="527" width="18" height="18"/><rect x="383" y="527" width="18" height="18"/><rect x="419" y="527" width="18" height="18"/><rect x="455" y="527" width="18" height="18"/><rect x="473" y="527" width="18" height="18"/><rect x="527" y="527" width="18" height="18"/><rect x="545" y="527" width="18" height="18"/><rect x="581" y="527" width="18" height="18"/><rect x="599" y="527" width="18" height="18"/><rect x="617" y="527" width="18" height="18"/><rect x="671" y="527" width="18" height="18"/><rect x="707" y="527" width="18" height="18"/><rect x="725" y="527" width="18" height="18"/><rect x="743" y="527" width="18" height="18"/><rect x="779" y="527" width="18" height="18"/><rect x="203" y="545" width="18" height="18"/><rect x="221" y="545" width="18" height="18"/><rect x="239" y="545" width="18" height="18"/><rect x="329" y="545" width="18" height="18"/><rect x="347" y="545" width="18" height="18"/><rect x="401" y="545" width="18" height="18"/><rect x="437" y="545" width="18" height="18"/><rect x="455" y="545" width="18" height="18"/><rect x="545" y="545" width="18" height="18"/><rect x="563" y="545" width="18" height="18"/><rect x="617" y="545" width="18" height="18"/><rect x="653" y="545" width="18" height="18"/><rect x="671" y="545" width="18" height="18"/><rect x="689" y="545" width="18" height="18"/><rect x="707" y="545" width="18" height="18"/><rect x="725" y="545" width="18" height="18"/><rect x="761" y="545" width="18" height="18"/><rect x="779" y="545" width="18" height="18"/><rect x="221" y="563" width="18" height="18"/><rect x="239" y="563" width="18" height="18"/><rect x="311" y="563" width="18" height="18"/><rect x="365" y="563" width="18" height="18"/><rect x="401" y="563" width="18" height="18"/><rect x="437" y="563" width="18" height="18"/><rect x="455" y="563" width="18" height="18"/><rect x="473" y="563" width="18" height="18"/><rect x="491" y="563" width="18" height="18"/><rect x="509" y="563" width="18" height="18"/><rect x="527" y="563" width="18" height="18"/><rect x="599" y="563" width="18" height="18"/><rect x="617" y="563" width="18" height="18"/><rect x="635" y="563" width="18" height="18"/><rect x="671" y="563" width="18" height="18"/><rect x="761" y="563" width="18" height="18"/><rect x="239" y="581" width="18" height="18"/><rect x="257" y="581" width="18" height="18"/><rect x="347" y="581" width="18" height="18"/><rect x="437" y="581" width="18" height="18"/><rect x="473" y="581" width="18" height="18"/><rect x="509" y="581" width="18" height="18"/><rect x="545" y="581" width="18" height="18"/><rect x="671" y="581" width="18" height="18"/><rect x="689" y="581" width="18" height="18"/><rect x="743" y="581" width="18" height="18"/><rect x="779" y="581" width="18" height="18"/><rect x="203" y="599" width="18" height="18"/><rect x="221" y="599" width="18" height="18"/><rect x="239" y="599" width="18" height="18"/><rect x="257" y="599" width="18" height="18"/><rect x="275" y="599" width="18" height="18"/><rect x="311" y="599" width="18" height="18"/><rect x="329" y="599" width="18" height="18"/><rect x="347" y="599" width="18" height="18"/><rect x="365" y="599" width="18" height="18"/><rect x="401" y="599" width="18" height="18"/><rect x="419" y="599" width="18" height="18"/><rect x="437" y="599" width="18" height="18"/><rect x="455" y="599" width="18" height="18"/><rect x="527" y="599" width="18" height="18"/><rect x="563" y="599" width="18" height="18"/><rect x="581" y="599" width="18" height="18"/><rect x="599" y="599" width="18" height="18"/><rect x="617" y="599" width="18" height="18"/><rect x="653" y="599" width="18" height="18"/><rect x="671" y="599" width="18" height="18"/><rect x="707" y="599" width="18" height="18"/><rect x="725" y="599" width="18" height="18"/><rect x="743" y="599" width="18" height="18"/><rect x="779" y="599" width="18" height="18"/><rect x="275" y="617" width="18" height="18"/><rect x="293" y="617" width="18" height="18"/><rect x="347" y="617" width="18" height="18"/><rect x="383" y="617" width="18" height="18"/><rect x="437" y="617" width="18" height="18"/><rect x="455" y="617" width="18" height="18"/><rect x="473" y="617" width="18" height="18"/><rect x="545" y="617" width="18" height="18"/><rect x="563" y="617" width="18" height="18"/><rect x="599" y="617" width="18" height="18"/><rect x="617" y="617" width="18" height="18"/><rect x="635" y="617" width="18" height="18"/><rect x="725" y="617" width="18" height="18"/><rect x="779" y="617" width="18" height="18"/><rect x="203" y="635" width="18" height="18"/><rect x="221" y="635" width="18" height="18"/><rect x="275" y="635" width="18" height="18"/><rect x="293" y="635" width="18" height="18"/><rect x="311" y="635" width="18" height="18"/><rect x="347" y="635" width="18" height="18"/><rect x="365" y="635" width="18" height="18"/><rect x="383" y="635" width="18" height="18"/><rect x="401" y="635" width="18" height="18"/><rect x="419" y="635" width="18" height="18"/><rect x="437" y="635" width="18" height="18"/><rect x="473" y="635" width="18" height="18"/><rect x="509" y="635" width="18" height="18"/><rect x="545" y="635" width="18" height="18"/><rect x="563" y="635" width="18" height="18"/><rect x="635" y="635" width="18" height="18"/><rect x="653" y="635" width="18" height="18"/><rect x="671" y="635" width="18" height="18"/><rect x="689" y="635" width="18" height="18"/><rect x="707" y="635" width="18" height="18"/><rect x="725" y="635" width="18" height="18"/><rect x="347" y="653" width="18" height="18"/><rect x="401" y="653" width="18" height="18"/><rect x="419" y="653" width="18" height="18"/><rect x="509" y="653" width="18" height="18"/><rect x="527" y="653" width="18" height="18"/><rect x="545" y="653" width="18" height="18"/><rect x="563" y="653" width="18" height="18"/><rect x="581" y="653" width="18" height="18"/><rect x="635" y="653" width="18" height="18"/><rect x="707" y="653" width="18" height="18"/><rect x="725" y="653" width="18" height="18"/><rect x="743" y="653" width="18" height="18"/><rect x="779" y="653" width="18" height="18"/><rect x="203" y="671" width="18" height="18"/><rect x="221" y="671" width="18" height="18"/><rect x="239" y="671" width="18" height="18"/><rect x="257" y="671" width="18" height="18"/><rect x="275" y="671" width="18" height="18"/><rect x="293" y="671" width="18" height="18"/><rect x="311" y="671" width="18" height="18"/><rect x="347" y="671" width="18" height="18"/><rect x="365" y="671" width="18" height="18"/><rect x="383" y="671" width="18" height="18"/><rect x="437" y="671" width="18" height="18"/><rect x="455" y="671" width="18" height="18"/><rect x="491" y="671" width="18" height="18"/><rect x="509" y="671" width="18" height="18"/><rect x="527" y="671" width="18" height="18"/><rect x="545" y="671" width="18" height="18"/><rect x="563" y="671" width="18" height="18"/><rect x="635" y="671" width="18" height="18"/><rect x="671" y="671" width="18" height="18"/><rect x="707" y="671" width="18" height="18"/><rect x="779" y="671" width="18" height="18"/><rect x="203" y="689" width="18" height="18"/><rect x="311" y="689" width="18" height="18"/><rect x="347" y="689" width="18" height="18"/><rect x="455" y="689" width="18" height="18"/><rect x="473" y="689" width="18" height="18"/><rect x="527" y="689" width="18" height="18"/><rect x="563" y="689" width="18" height="18"/><rect x="581" y="689" width="18" height="18"/><rect x="635" y="689" width="18" height="18"/><rect x="707" y="689" width="18" height="18"/><rect x="725" y="689" width="18" height="18"/><rect x="761" y="689" width="18" height="18"/><rect x="779" y="689" width="18" height="18"/><rect x="203" y="707" width="18" height="18"/><rect x="239" y="707" width="18" height="18"/><rect x="257" y="707" width="18" height="18"/><rect x="275" y="707" width="18" height="18"/><rect x="311" y="707" width="18" height="18"/><rect x="383" y="707" width="18" height="18"/><rect x="401" y="707" width="18" height="18"/><rect x="437" y="707" width="18" height="18"/><rect x="455" y="707" width="18" height="18"/><rect x="509" y="707" width="18" height="18"/><rect x="527" y="707" width="18" height="18"/><rect x="563" y="707" width="18" height="18"/><rect x="581" y="707" width="18" height="18"/><rect x="617" y="707" width="18" height="18"/><rect x="635" y="707" width="18" height="18"/><rect x="653" y="707" width="18" height="18"/><rect x="671" y="707" width="18" height="18"/><rect x="689" y="707" width="18" height="18"/><rect x="707" y="707" width="18" height="18"/><rect x="725" y="707" width="18" height="18"/><rect x="203" y="725" width="18" height="18"/><rect x="239" y="725" width="18" height="18"/><rect x="257" y="725" width="18" height="18"/><rect x="275" y="725" width="18" height="18"/><rect x="311" y="725" width="18" height="18"/><rect x="365" y="725" width="18" height="18"/><rect x="383" y="725" width="18" height="18"/><rect x="401" y="725" width="18" height="18"/><rect x="437" y="725" width="18" height="18"/><rect x="545" y="725" width="18" height="18"/><rect x="581" y="725" width="18" height="18"/><rect x="617" y="725" width="18" height="18"/><rect x="635" y="725" width="18" height="18"/><rect x="653" y="725" width="18" height="18"/><rect x="689" y="725" width="18" height="18"/><rect x="707" y="725" width="18" height="18"/><rect x="761" y="725" width="18" height="18"/><rect x="203" y="743" width="18" height="18"/><rect x="239" y="743" width="18" height="18"/><rect x="257" y="743" width="18" height="18"/><rect x="275" y="743" width="18" height="18"/><rect x="311" y="743" width="18" height="18"/><rect x="347" y="743" width="18" height="18"/><rect x="437" y="743" width="18" height="18"/><rect x="473" y="743" width="18" height="18"/><rect x="527" y="743" width="18" height="18"/><rect x="545" y="743" width="18" height="18"/><rect x="581" y="743" width="18" height="18"/><rect x="599" y="743" width="18" height="18"/><rect x="617" y="743" width="18" height="18"/><rect x="635" y="743" width="18" height="18"/><rect x="707" y="743" width="18" height="18"/><rect x="761" y="743" width="18" height="18"/><rect x="779" y="743" width="18" height="18"/><rect x="203" y="761" width="18" height="18"/><rect x="311" y="761" width="18" height="18"/><rect x="419" y="761" width="18" height="18"/><rect x="437" y="761" width="18" height="18"/><rect x="455" y="761" width="18" height="18"/><rect x="473" y="761" width="18" height="18"/><rect x="509" y="761" width="18" height="18"/><rect x="545" y="761" width="18" height="18"/><rect x="581" y="761" width="18" height="18"/><rect x="599" y="761" width="18" height="18"/><rect x="617" y="761" width="18" height="18"/><rect x="635" y="761" width="18" height="18"/><rect x="653" y="761" width="18" height="18"/><rect x="671" y="761" width="18" height="18"/><rect x="725" y="761" width="18" height="18"/><rect x="203" y="779" width="18" height="18"/><rect x="221" y="779" width="18" height="18"/><rect x="239" y="779" width="18" height="18"/><rect x="257" y="779" width="18" height="18"/><rect x="275" y="779" width="18" height="18"/><rect x="293" y="779" width="18" height="18"/><rect x="311" y="779" width="18" height="18"/><rect x="419" y="779" width="18" height="18"/><rect x="437" y="779" width="18" height="18"/><rect x="491" y="779" width="18" height="18"/><rect x="545" y="779" width="18" height="18"/><rect x="599" y="779" width="18" height="18"/><rect x="635" y="779" width="18" height="18"/><rect x="653" y="779" width="18" height="18"/><rect x="707" y="779" width="18" height="18"/><rect x="725" y="779" width="18" height="18"/><rect x="779" y="779" width="18" height="18"/></g>
<text x="500" y="901" text-anchor="middle" font-family="Helvetica, Arial, 'Hiragino Sans', 'Noto Sans JP', sans-serif" font-size="31" fill="#1A1A1A">chat.yah.homes/takasago</text>
</svg>